<?xml version="1.0" encoding="UTF-8" standalone="no"?>
<!-- Created with Inkscape (http://www.inkscape.org/) -->

<svg
   xmlns:dc="http://purl.org/dc/elements/1.1/"
   xmlns:cc="http://creativecommons.org/ns#"
   xmlns:rdf="http://www.w3.org/1999/02/22-rdf-syntax-ns#"
   xmlns:svg="http://www.w3.org/2000/svg"
   xmlns="http://www.w3.org/2000/svg"
   xmlns:sodipodi="http://sodipodi.sourceforge.net/DTD/sodipodi-0.dtd"
   xmlns:inkscape="http://www.inkscape.org/namespaces/inkscape"
   width="210mm"
   height="297mm"
   viewBox="0 0 210 297"
   version="1.1"
   id="svg1042"
   inkscape:version="0.92.3 (2405546, 2018-03-11)"
   sodipodi:docname="handshake_blue.svg">
  <defs
     id="defs1036" />
  <sodipodi:namedview
     id="base"
     pagecolor="#ffffff"
     bordercolor="#666666"
     borderopacity="1.0"
     inkscape:pageopacity="0.0"
     inkscape:pageshadow="2"
     inkscape:zoom="0.98994949"
     inkscape:cx="296.44919"
     inkscape:cy="568.67776"
     inkscape:document-units="mm"
     inkscape:current-layer="layer1"
     showgrid="false"
     inkscape:window-width="1920"
     inkscape:window-height="1057"
     inkscape:window-x="0"
     inkscape:window-y="0"
     inkscape:window-maximized="1" />
  <metadata
     id="metadata1039">
    <rdf:RDF>
      <cc:Work
         rdf:about="">
        <dc:format>image/svg+xml</dc:format>
        <dc:type
           rdf:resource="http://purl.org/dc/dcmitype/StillImage" />
        <dc:title></dc:title>
      </cc:Work>
    </rdf:RDF>
  </metadata>
  <g
     inkscape:label="Layer 1"
     inkscape:groupmode="layer"
     id="layer1">
    <path
       d="m 151.50739,141.17754 c -2.13076,-3.62652 -4.23332,-7.30952 -5.98312,-11.10544 -3.21732,-6.985 -4.75544,-14.224 -8.255,-21.082 1.8768,-1.18532 3.86644,-2.04608 6.02544,-2.59644 3.47136,6.61812 6.4488,13.53256 9.63792,20.26356 1.69332,3.58424 3.2032,7.56356 4.92476,11.4018 -2.20132,0.83252 -4.30388,1.91908 -6.35,3.11852 m -14.19576,-3.40076 c -1.34056,-1.35468 -18.61256,-16.03024 -26.34544,-20.574 -2.34248,-1.38288 -5.461,-2.67688 -8.26912,-2.9732 -0.762,-0.0848 -6.762041,-0.46992 -10.399881,3.67876 -0.94548,1.84856 -9.397988,12.319 -11.867468,6.32176 -0.98776,-2.39888 6.9568,-12.05088 7.56356,-13.06688 1.622788,-2.65288 2.723428,-3.35844 5.206988,-4.54376 2.48356,-1.17124 6.970921,-2.97744 9.793121,-3.429 4.86832,-0.80436 12.09324,2.85044 16.69344,4.318 4.76956,1.524 9.05932,4.64256 14.02644,3.8382 3.4008,6.75924 4.9248,14.02644 8.15624,20.85624 0.3668,0.7902 0.74788,1.58044 1.15712,2.35656 -2.11668,0.60676 -3.95112,1.82032 -5.715,3.21732 m -1.56636,8.94644 c -1.05832,1.76388 -3.51364,1.27 -5.1082,0.94544 -0.2964,-0.0564 -2.08844,-0.77612 -2.75168,-1.15712 -2.22956,-1.25588 -4.27568,-2.62464 -6.26532,-4.24744 -3.33024,-2.6952 -6.46288,-5.53156 -10.14588,-7.747 -2.34248,-1.4252 -4.47324,2.24368 -2.14492,3.6548 3.9088,2.35656 7.19668,5.4892 10.78088,8.26912 1.60868,1.25588 3.25968,2.42708 5.0518,3.41488 0.80432,0.43744 2.57244,1.00752 2.70932,2.85044 0.1368,1.84292 -3.175,2.62468 -3.175,2.62468 -0.57856,0 -7.93044,-4.81192 -10.93608,-6.67456 -2.31424,-1.45344 -4.445,2.21544 -2.1308,3.65476 1.43932,0.889 2.87868,1.778 4.30388,2.68112 1.10068,0.67732 2.667,1.34056 3.48544,2.35656 2.59644,3.21732 -2.75164,3.54188 -4.75544,2.62464 -0.016,0 -4.9812,-3.175 -7.02732,-5.08 -1.98968,-1.84852 -4.98124,1.12892 -2.99156,2.99156 1.38288,1.29824 2.921,2.286 4.52968,3.2738 1.35464,0.81844 4.16276,2.83632 1.1712,3.3302 -2.32832,0.3952 -5.27756,-0.1976 -7.62,-1.11476 -0.028,-1.58044 -0.59264,-3.18912 -1.60864,-4.13456 -1.05836,-0.98776 -2.483561,-1.34056 -3.880561,-1.49576 -0.74788,-0.0848 -1.63688,-0.1836 -2.48356,-0.1268 -0.1836,-0.87492 -0.508,-1.72156 -0.93132,-2.52592 -1.2418,-2.37064 -4.36036,-4.62844 -7.168468,-4.02164 -0.0424,0.016 -0.0848,0.016 -0.1272,0.0424 -1.32644,-2.65292 -3.73944,-4.30392 -6.84388,-3.81 -0.46564,0.0704 -0.889,0.1836 -1.27,0.3388 -0.2256,-0.83256 -0.6632,-1.651 -1.34056,-2.3848 -1.56632,-1.70744 -4.37444,-2.6952 -6.604,-1.84856 -0.028,0.016 -0.0564,0.016 -0.0704,0.028 -0.889,-0.90308 -5.842,-3.51364 -7.04144,-4.4732 -0.028,-0.028 -0.0564,-0.0564 -0.0988,-0.0704 4.43088,-9.12988 8.83356,-18.27388 13.081,-27.50256 1.00188,-0.24 2.01788,-0.64912 3.2738,-1.08656 1.49576,-0.5362 2.97744,-1.07244 4.4732,-1.59456 -2.34244,4.88244 -6.19476,9.08756 -7.73288,14.40744 -0.66324,2.30012 -1.31232,5.15056 0.90312,6.84392 2.286,1.73564 7.21076,0.0704 9.38388,-0.8608 4.148668,-1.79212 7.126108,-4.88244 9.186308,-8.81944 3.46148,-2.87444 8.650121,-1.55224 11.994441,-0.016 7.54948,3.45724 27.06512,19.72732 27.95412,22.54956 0.3528,1.08656 0.6068,2.85044 -0.028,3.90876 M 96.601269,163.5421 c -0.268,-0.0564 -1.016,-0.1552 -1.143,-0.3388 -0.1976,-0.254 -0.0704,-0.93132 -0.0424,-1.31232 0.028,0 0.0704,0 0.1128,-0.016 0.56444,0.2116 1.38288,0 2.00376,0.1692 0.635,0.1836 0.73376,0.24 0.84668,0.889 0.0424,0.24 0.1128,0.62088 0.0848,0.93132 -0.62092,-0.0848 -1.2418,-0.1976 -1.86268,-0.3244 m -5.9408,-3.75352 c -0.762,-0.43748 -1.453428,-0.9878 -2.017868,-1.63692 -0.3812,-0.43744 -0.69144,-0.86076 -0.83256,-1.43932 -0.0848,-0.40924 -0.0988,-0.81844 -0.016,-1.22768 0.0424,-0.0704 0.0704,-0.1268 0.0848,-0.1836 0.2824,0.1692 0.95956,0.40924 1.143,0.55036 0.423348,0.3104 0.761988,0.70556 1.030108,1.143 0.3104,0.5362 0.49388,1.18532 0.57856,1.8062 0.0564,0.40924 0.0704,0.71968 0.028,0.9878 m -7.817548,-5.24936 c -0.98776,-0.2116 -2.04612,-0.56444 -2.6952,-1.21356 -0.56444,-0.57852 -0.80436,-1.6792 0.1976,-1.86264 1.24176,-0.2256 1.89088,0.5362 2.42708,1.59456 0.3952,0.77608 0.3668,1.18532 0.0704,1.48164 m -9.2992,-6.13832 c -0.254,-0.1692 -0.46568,-0.52212 -0.59268,-0.91724 0.3244,0.1268 0.635,0.2824 0.889,0.52212 0.268,0.254 0.43744,0.49388 0.49388,0.7338 -0.2964,-0.0848 -0.56444,-0.1836 -0.7902,-0.3388 m -16.55252,-6.2938 c -1.80624,-1.08656 -3.69712,-2.08844 -5.6868,-2.77988 0.93136,-2.86456 1.73568,-5.77144 2.68112,-8.26912 2.93512,-7.78932 5.78556,-15.66332 10.01888,-22.86 2.55412,1.18532 5.15056,2.21544 7.77524,2.97744 -4.7978,10.37168 -9.79312,20.65868 -14.78844,30.93156 M 183.89027,131.40858 c -2.667,2.85044 -7.15432,4.75544 -10.47044,6.731 -2.37068,1.41112 -5.36224,3.85236 -8.21268,4.89656 -3.51364,-5.6162 -5.842,-12.62944 -8.62188,-18.51376 -3.048,-6.43468 -5.89844,-13.02456 -9.15812,-19.36044 6.88624,-2.61056 14.33688,-4.96712 20.5458,-8.720683 2.32832,-1.41112 0.2116,-5.08 -2.1308,-3.65476 -6.51932,3.937 -33.41652,13.879683 -33.5576,14.133683 -0.1552,0.016 -0.3104,0.028 -0.46568,0.028 -4.75544,0.1128 -11.38628,-3.50804 -15.33736,-4.73572 -4.191,-1.31232 -7.70468,-3.189123 -12.13556,-3.259683 -3.47136,-0.0704 -26.627669,9.510923 -33.034109,7.436563 -6.77332,-2.20132 -13.29268,-6.096 -19.69912,-9.200443 -2.4412,-1.18532 -4.58612,2.46944 -2.13076,3.654803 3.49956,1.69332 7.06964,3.66888 10.6962,5.50332 -5.2352,8.98876 -8.56544,19.05 -12.20608,28.77256 -0.49392,1.32644 -2.286,8.55132 -3.44312,8.94644 -1.86268,0.635 -3.92288,-1.67924 -5.29168,-2.59644 -5.31988,-3.57012 -10.55512,-7.14024 -16.35476,-9.92012 -2.44124,-1.1712 -4.60024,2.46944 -2.1308,3.6548 4.71312,2.25776 9.05936,4.9812 13.39144,7.91632 3.11856,2.10256 6.7028,5.3622 10.37168,6.42056 0.67732,0.1976 1.59456,0.016 2.06024,-0.53624 1.34052,-1.60864 2.38476,-3.5842 3.25964,-5.70088 2.46944,0.87488 4.76956,2.24368 6.9568,3.683 0.90308,0.59268 2.413,0.24 2.89276,-0.762 0.56444,-1.15712 1.12888,-2.32832 1.69332,-3.48544 0.91724,0.69144 6.91448,4.4732 7.25312,4.54376 0.1128,0.97368 0.42336,1.93324 0.80436,2.68112 1.22764,2.413 3.59832,2.56824 5.88432,3.33024 0.0988,0.0424 0.2116,0.0704 0.3104,0.0704 0.012,0.1412 0.0424,0.2824 0.0704,0.43744 0.55032,2.59644 3.2032,4.04988 5.715,4.7272 0.59268,0.49392 1.41112,0.70556 2.27188,0.3244 0.028,0 0.0424,0 0.0704,-0.016 0.1128,-0.016 0.2116,-0.028 0.3104,-0.0704 1.22768,2.96336 4.33212,4.85424 7.224868,5.91256 0.0848,0.028 0.1552,0.0564 0.24,0.0704 0.1552,0.40924 0.3388,0.762 0.55036,1.05832 0.87488,1.21356 2.25776,1.58048 3.65476,1.86268 1.69332,0.3388 3.4008,0.55032 5.108241,0.69144 0.71964,0.0564 1.25588,-0.2116 1.59456,-0.62088 3.82408,1.27 8.6642,1.91912 11.684,-0.2256 1.07244,-0.762 1.72152,-1.83444 1.905,-3.00568 3.81,0.3952 8.26908,-0.74788 8.31144,-4.99532 v -0.016 c 2.52588,0 5.05176,-0.57856 6.604,-2.85044 0.84664,-1.2418 1.27,-2.96332 1.18532,-4.60024 4.00756,0.0988 7.73288,-1.53808 8.14212,-6.29356 0.1552,-1.73564 -0.0708,-3.2032 -0.59268,-4.48732 1.58044,-1.2982 3.28788,-2.61056 5.36224,-2.87868 1.25588,2.286 2.5682,4.52968 3.89464,6.75924 0.56448,0.95956 1.905,1.35468 2.8928,0.762 2.49768,-1.53812 5.09412,-3.03388 7.85988,-4.02168 0.84668,1.651 1.7498,3.21736 2.7658,4.6708 0.59264,0.83256 1.397,1.143 2.39888,0.97364 3.683,-0.6632 7.57764,-3.86644 10.71032,-5.7432 3.64068,-2.17312 8.382,-4.24744 11.31712,-7.39424 1.86268,-1.98964 -1.12888,-4.9812 -2.99156,-2.99156"
       style="fill:#5774f0;fill-opacity:1;fill-rule:nonzero;stroke:none;stroke-width:1.411111"
       id="path70"
       inkscape:connector-curvature="0" />
  </g>
</svg>
