<?xml version="1.0" encoding="utf-8"?>
<!-- Generator: Adobe Illustrator 16.0.0, SVG Export Plug-In . SVG Version: 6.00 Build 0)  -->
<!DOCTYPE svg PUBLIC "-//W3C//DTD SVG 1.0//EN" "http://www.w3.org/TR/2001/REC-SVG-20010904/DTD/svg10.dtd">
<svg version="1.0" id="Layer_1" xmlns="http://www.w3.org/2000/svg" xmlns:xlink="http://www.w3.org/1999/xlink" x="0px" y="0px"
	 width="200px" height="200px" viewBox="0 0 100 100" enable-background="new 0 0 100 100" xml:space="preserve">
<path style="fill: #4B3FB5" d="M50,83.333c-9.304,0-17.669-3.854-23.714-10L35,73.327v-6.661H18.333C16.494,66.666,15,68.157,15,70v16.667h6.667v-8.559
	C28.906,85.42,38.894,90,50,90c22.09,0,40-17.91,40-40h-6.667C83.333,68.408,68.408,83.333,50,83.333z"/>
<path style="fill: #4B3FB5" d="M50,16.667c9.304,0,17.669,3.854,23.718,10L65,26.673v6.66h16.667C83.503,33.333,85,31.842,85,30V13.333h-6.667v8.558
	C71.094,14.58,61.106,10,50,10c-22.09,0-40,17.91-40,40h6.667C16.667,31.592,31.592,16.667,50,16.667z"/>
<path style="fill: #C13652" d="M63.333,43.333H60v-6.667c0-5.521-4.479-10-10-10s-10,4.479-10,10v6.667h-3.333c-1.833,0-3.334,1.504-3.334,3.333V60
	c0,1.836,1.501,3.334,3.334,3.334h26.666c1.833,0,3.334-1.498,3.334-3.334V46.667C66.667,44.837,65.166,43.333,63.333,43.333z
	 M46.667,36.667c0-1.842,1.49-3.333,3.333-3.333s3.333,1.491,3.333,3.333v6.667h-6.666V36.667z"/>
</svg>
