<svg xmlns="http://www.w3.org/2000/svg" xmlns:xlink="http://www.w3.org/1999/xlink" width="363" height="327" viewBox="0 0 363 327"><defs><style>.a,.f{fill:#fff;}.b,.d{fill:#15224f;}.b{font-size:18px;letter-spacing:-0.056em;}.b,.f{font-family:Nunito-Bold, Nunito;font-weight:700;}.c{isolation:isolate;}.d,.f{font-size:14px;}.d{font-family:Nunito-Regular, Nunito;}.e{fill:#fe6e41;}.g{fill:rgba(254,110,65,0.15);}.h{fill:none;stroke:#fe6e41;stroke-width:2px;}.i{filter:url(#a);}</style><filter id="a" x="0" y="0" width="363" height="327" filterUnits="userSpaceOnUse"><feOffset dy="3" input="SourceAlpha"/><feGaussianBlur stdDeviation="3" result="b"/><feFlood flood-opacity="0.161"/><feComposite operator="in" in2="b"/><feComposite in="SourceGraphic"/></filter></defs><g transform="translate(-6 -232)"><g class="i" transform="matrix(1, 0, 0, 1, 6, 232)"><rect class="a" width="345" height="309" transform="translate(9 6)"/></g><text class="b" transform="translate(35 258)"><tspan x="66.543" y="18">Create your first survey</tspan></text><g class="c" transform="translate(89 211)"><text class="d" transform="translate(-64 81)"><tspan x="9.1" y="14">Use our powerful platform to start making better </tspan><tspan x="96.523" y="38">workplace decisions.</tspan></text></g><g transform="translate(-10 -337)"><rect class="e" width="316" height="59" rx="10" transform="translate(39 692)"/><text class="f" transform="translate(72 713)"><tspan x="58.511" y="14">Create a survey now</tspan></text></g><g transform="translate(0 230)"><path class="a" d="M13.77,12.666,11.126,10.03A6.158,6.158,0,0,0,12.44,6.22a6.22,6.22,0,1,0-6.22,6.22,6.158,6.158,0,0,0,3.81-1.314l2.636,2.644a.781.781,0,1,0,1.1-1.1ZM1.555,6.22a4.665,4.665,0,1,1,1.366,3.3A4.665,4.665,0,0,1,1.555,6.22Z" transform="translate(296 260)"/></g><g transform="translate(94.24 445)"><path class="g" d="M86.9,56.682l-4.48,4.512a.235.235,0,0,1-.17.071h0a.235.235,0,0,1-.169-.07l-1.664-1.664a1.2,1.2,0,1,0-1.693,1.693l1.664,1.664a2.616,2.616,0,0,0,1.862.771h0a2.617,2.617,0,0,0,1.864-.778l4.481-4.512a1.2,1.2,0,0,0-1.7-1.687Zm1.693-32.594a1.2,1.2,0,0,0-1.693.006l-4.48,4.512a.235.235,0,0,1-.169.071h0a.235.235,0,0,1-.169-.07l-1.664-1.664a1.2,1.2,0,1,0-1.693,1.693L80.383,30.3a2.616,2.616,0,0,0,1.862.771h0a2.616,2.616,0,0,0,1.864-.778l4.481-4.512A1.2,1.2,0,0,0,88.588,24.088Zm0,16.294a1.2,1.2,0,0,0-1.693.006L82.415,44.9a.235.235,0,0,1-.169.071h0a.235.235,0,0,1-.169-.07l-1.664-1.664a1.2,1.2,0,1,0-1.693,1.693l1.664,1.664a2.615,2.615,0,0,0,1.862.771h0a2.616,2.616,0,0,0,1.864-.778l4.481-4.512a1.2,1.2,0,0,0-.006-1.693Zm-7.5-17.632h-3.9a2.636,2.636,0,0,0-2.633,2.633v8.634a2.636,2.636,0,0,0,2.633,2.633h8.634a2.636,2.636,0,0,0,2.633-2.633V30.988a1.2,1.2,0,0,0-2.394,0v3.029a.24.24,0,0,1-.239.239H77.184a.24.24,0,0,1-.239-.239V25.383a.24.24,0,0,1,.239-.239h3.9a1.2,1.2,0,0,0,0-2.394ZM117.794,2.458h-5.487a1.2,1.2,0,0,0,0,2.394h5.487a3.576,3.576,0,0,1,3.572,3.572V75.748a3.576,3.576,0,0,1-3.572,3.572H67.726a3.576,3.576,0,0,1-3.572-3.572V8.424a3.576,3.576,0,0,1,3.572-3.572h9.066V7.227H68.52a1.994,1.994,0,0,0-1.992,1.992V58.51a1.2,1.2,0,0,0,2.394,0V9.62H74.61a3.565,3.565,0,0,0-.2,1.187v3.32a3.585,3.585,0,0,0,3.581,3.581h29.543a3.585,3.585,0,0,0,3.581-3.581v-3.32a3.564,3.564,0,0,0-.2-1.187H116.6V62.1h-6.211a5.973,5.973,0,0,0-5.965,5.966V74.28h-35.5V63.3a1.2,1.2,0,1,0-2.394,0V74.682a1.994,1.994,0,0,0,1.992,1.992h37.1a1.2,1.2,0,0,0,.846-.351l0,0,12.174-12.176a1.209,1.209,0,0,0,.347-.77c0-.011,0-54.129,0-54.156A1.994,1.994,0,0,0,117,7.227h-8.271V3.906A3.91,3.91,0,0,0,104.823,0H80.7a3.911,3.911,0,0,0-3.626,2.458H67.726A5.972,5.972,0,0,0,61.76,8.424V75.748a5.973,5.973,0,0,0,5.966,5.966h50.069a5.972,5.972,0,0,0,5.966-5.966V8.424a5.972,5.972,0,0,0-5.966-5.966Zm-10.98,70.128V68.067a3.576,3.576,0,0,1,3.571-3.572H114.9ZM79.185,3.906A1.513,1.513,0,0,1,80.7,2.394h24.127a1.513,1.513,0,0,1,1.511,1.512V8.3a1.513,1.513,0,0,1-1.511,1.512H80.7A1.513,1.513,0,0,1,79.185,8.3Zm-2.384,6.9a1.183,1.183,0,0,1,.361-.851A3.91,3.91,0,0,0,80.7,12.2h24.127a3.91,3.91,0,0,0,3.535-2.247,1.183,1.183,0,0,1,.361.851v3.32a1.189,1.189,0,0,1-1.187,1.187H77.988A1.189,1.189,0,0,1,76.8,14.128Zm-2.25,39.5a2.636,2.636,0,0,0,2.633,2.633h8.634a2.636,2.636,0,0,0,2.633-2.633V47.282a1.2,1.2,0,0,0-2.394,0v3.029a.24.24,0,0,1-.239.239H77.184a.24.24,0,0,1-.239-.239V41.677a.24.24,0,0,1,.239-.239h3.9a1.2,1.2,0,0,0,0-2.394h-3.9a2.636,2.636,0,0,0-2.633,2.633ZM92.7,57.732h17.072a1.2,1.2,0,0,0,0-2.394H92.7a1.2,1.2,0,1,0,0,2.394Zm-18.15,8.873a2.636,2.636,0,0,0,2.633,2.633h8.634a2.636,2.636,0,0,0,2.633-2.633V63.576a1.2,1.2,0,1,0-2.394,0v3.029a.24.24,0,0,1-.239.239H77.184a.24.24,0,0,1-.239-.239V57.971a.24.24,0,0,1,.239-.239h3.9a1.2,1.2,0,0,0,0-2.394h-3.9a2.636,2.636,0,0,0-2.633,2.633ZM92.7,62.52h9.891a1.2,1.2,0,1,0,0-2.394H92.7a1.2,1.2,0,1,0,0,2.394Zm0-16.294h9.891a1.2,1.2,0,1,0,0-2.394H92.7a1.2,1.2,0,1,0,0,2.394Zm0-4.788h17.072a1.2,1.2,0,0,0,0-2.394H92.7a1.2,1.2,0,1,0,0,2.394Zm0-11.506h17.072a1.2,1.2,0,0,0,0-2.394H92.7a1.2,1.2,0,1,0,0,2.394Zm0-4.788h17.072a1.2,1.2,0,0,0,0-2.394H92.7a1.2,1.2,0,1,0,0,2.394Z" transform="translate(0)"/></g><line class="h" x2="345" transform="translate(15 239)"/><g transform="translate(0 230)"><path class="a" d="M13.77,12.666,11.126,10.03A6.158,6.158,0,0,0,12.44,6.22a6.22,6.22,0,1,0-6.22,6.22,6.158,6.158,0,0,0,3.81-1.314l2.636,2.644a.781.781,0,1,0,1.1-1.1ZM1.555,6.22a4.665,4.665,0,1,1,1.366,3.3A4.665,4.665,0,0,1,1.555,6.22Z" transform="translate(296 260)"/></g><g transform="translate(94.24 445)"><path class="g" d="M86.9,56.682l-4.48,4.512a.235.235,0,0,1-.17.071h0a.235.235,0,0,1-.169-.07l-1.664-1.664a1.2,1.2,0,1,0-1.693,1.693l1.664,1.664a2.616,2.616,0,0,0,1.862.771h0a2.617,2.617,0,0,0,1.864-.778l4.481-4.512a1.2,1.2,0,0,0-1.7-1.687Zm1.693-32.594a1.2,1.2,0,0,0-1.693.006l-4.48,4.512a.235.235,0,0,1-.169.071h0a.235.235,0,0,1-.169-.07l-1.664-1.664a1.2,1.2,0,1,0-1.693,1.693L80.383,30.3a2.616,2.616,0,0,0,1.862.771h0a2.616,2.616,0,0,0,1.864-.778l4.481-4.512A1.2,1.2,0,0,0,88.588,24.088Zm0,16.294a1.2,1.2,0,0,0-1.693.006L82.415,44.9a.235.235,0,0,1-.169.071h0a.235.235,0,0,1-.169-.07l-1.664-1.664a1.2,1.2,0,1,0-1.693,1.693l1.664,1.664a2.615,2.615,0,0,0,1.862.771h0a2.616,2.616,0,0,0,1.864-.778l4.481-4.512a1.2,1.2,0,0,0-.006-1.693Zm-7.5-17.632h-3.9a2.636,2.636,0,0,0-2.633,2.633v8.634a2.636,2.636,0,0,0,2.633,2.633h8.634a2.636,2.636,0,0,0,2.633-2.633V30.988a1.2,1.2,0,0,0-2.394,0v3.029a.24.24,0,0,1-.239.239H77.184a.24.24,0,0,1-.239-.239V25.383a.24.24,0,0,1,.239-.239h3.9a1.2,1.2,0,0,0,0-2.394ZM117.794,2.458h-5.487a1.2,1.2,0,0,0,0,2.394h5.487a3.576,3.576,0,0,1,3.572,3.572V75.748a3.576,3.576,0,0,1-3.572,3.572H67.726a3.576,3.576,0,0,1-3.572-3.572V8.424a3.576,3.576,0,0,1,3.572-3.572h9.066V7.227H68.52a1.994,1.994,0,0,0-1.992,1.992V58.51a1.2,1.2,0,0,0,2.394,0V9.62H74.61a3.565,3.565,0,0,0-.2,1.187v3.32a3.585,3.585,0,0,0,3.581,3.581h29.543a3.585,3.585,0,0,0,3.581-3.581v-3.32a3.564,3.564,0,0,0-.2-1.187H116.6V62.1h-6.211a5.973,5.973,0,0,0-5.965,5.966V74.28h-35.5V63.3a1.2,1.2,0,1,0-2.394,0V74.682a1.994,1.994,0,0,0,1.992,1.992h37.1a1.2,1.2,0,0,0,.846-.351l0,0,12.174-12.176a1.209,1.209,0,0,0,.347-.77c0-.011,0-54.129,0-54.156A1.994,1.994,0,0,0,117,7.227h-8.271V3.906A3.91,3.91,0,0,0,104.823,0H80.7a3.911,3.911,0,0,0-3.626,2.458H67.726A5.972,5.972,0,0,0,61.76,8.424V75.748a5.973,5.973,0,0,0,5.966,5.966h50.069a5.972,5.972,0,0,0,5.966-5.966V8.424a5.972,5.972,0,0,0-5.966-5.966Zm-10.98,70.128V68.067a3.576,3.576,0,0,1,3.571-3.572H114.9ZM79.185,3.906A1.513,1.513,0,0,1,80.7,2.394h24.127a1.513,1.513,0,0,1,1.511,1.512V8.3a1.513,1.513,0,0,1-1.511,1.512H80.7A1.513,1.513,0,0,1,79.185,8.3Zm-2.384,6.9a1.183,1.183,0,0,1,.361-.851A3.91,3.91,0,0,0,80.7,12.2h24.127a3.91,3.91,0,0,0,3.535-2.247,1.183,1.183,0,0,1,.361.851v3.32a1.189,1.189,0,0,1-1.187,1.187H77.988A1.189,1.189,0,0,1,76.8,14.128Zm-2.25,39.5a2.636,2.636,0,0,0,2.633,2.633h8.634a2.636,2.636,0,0,0,2.633-2.633V47.282a1.2,1.2,0,0,0-2.394,0v3.029a.24.24,0,0,1-.239.239H77.184a.24.24,0,0,1-.239-.239V41.677a.24.24,0,0,1,.239-.239h3.9a1.2,1.2,0,0,0,0-2.394h-3.9a2.636,2.636,0,0,0-2.633,2.633ZM92.7,57.732h17.072a1.2,1.2,0,0,0,0-2.394H92.7a1.2,1.2,0,1,0,0,2.394Zm-18.15,8.873a2.636,2.636,0,0,0,2.633,2.633h8.634a2.636,2.636,0,0,0,2.633-2.633V63.576a1.2,1.2,0,1,0-2.394,0v3.029a.24.24,0,0,1-.239.239H77.184a.24.24,0,0,1-.239-.239V57.971a.24.24,0,0,1,.239-.239h3.9a1.2,1.2,0,0,0,0-2.394h-3.9a2.636,2.636,0,0,0-2.633,2.633ZM92.7,62.52h9.891a1.2,1.2,0,1,0,0-2.394H92.7a1.2,1.2,0,1,0,0,2.394Zm0-16.294h9.891a1.2,1.2,0,1,0,0-2.394H92.7a1.2,1.2,0,1,0,0,2.394Zm0-4.788h17.072a1.2,1.2,0,0,0,0-2.394H92.7a1.2,1.2,0,1,0,0,2.394Zm0-11.506h17.072a1.2,1.2,0,0,0,0-2.394H92.7a1.2,1.2,0,1,0,0,2.394Zm0-4.788h17.072a1.2,1.2,0,0,0,0-2.394H92.7a1.2,1.2,0,1,0,0,2.394Z" transform="translate(0)"/></g><line class="h" x2="345" transform="translate(15 239)"/><line class="h" x2="345" transform="translate(15 239)"/></g></svg>