<svg xmlns="http://www.w3.org/2000/svg" xmlns:xlink="http://www.w3.org/1999/xlink" width="363" height="327" viewBox="0 0 363 327"><defs><style>.a,.g{fill:#fff;}.b,.d{fill:#15224f;}.b{font-size:18px;letter-spacing:-0.056em;}.b,.g{font-family:Nunito-Bold, Nunito;font-weight:700;}.c{isolation:isolate;}.d,.g{font-size:14px;}.d{font-family:Nunito-Regular, Nunito;}.e{font-size:8.166px;baseline-shift:4.666199819518059;}.f{fill:#636f9a;}.h{fill:none;stroke:#15224f;stroke-width:2px;}.i{filter:url(#a);}</style><filter id="a" x="0" y="0" width="363" height="327" filterUnits="userSpaceOnUse"><feOffset dy="3" input="SourceAlpha"/><feGaussianBlur stdDeviation="3" result="b"/><feFlood flood-opacity="0.161"/><feComposite operator="in" in2="b"/><feComposite in="SourceGraphic"/></filter></defs><g transform="translate(-6 -344)"><g transform="translate(0 112)"><g class="i" transform="matrix(1, 0, 0, 1, 6, 232)"><rect class="a" width="345" height="309" transform="translate(9 6)"/></g><text class="b" transform="translate(35 258)"><tspan x="43.005" y="18">See how your company ranks</tspan></text><g class="c" transform="translate(89 211)"><text class="d" transform="translate(-64 81)"><tspan x="6.567" y="14">Get your HiyerScore</tspan><tspan class="e" y="14">TM </tspan><tspan y="14">and see how your business </tspan><tspan x="14.413" y="38">ranks among other businesses in your industry.</tspan></text></g><g transform="translate(-10 -337)"><path class="f" d="M10,0H306a10,10,0,0,1,10,10V49a10,10,0,0,1-10,10H10A10,10,0,0,1,0,49V10A10,10,0,0,1,10,0Z" transform="translate(39 692)"/><text class="g" transform="translate(72 713)"><tspan x="45.259" y="14">Check your HiyerScore</tspan><tspan class="e" y="14">TM</tspan></text></g></g><g transform="translate(0 342)"><path class="a" d="M13.77,12.666,11.126,10.03A6.158,6.158,0,0,0,12.44,6.22a6.22,6.22,0,1,0-6.22,6.22,6.158,6.158,0,0,0,3.81-1.314l2.636,2.644a.781.781,0,1,0,1.1-1.1ZM1.555,6.22a4.665,4.665,0,1,1,1.366,3.3A4.665,4.665,0,0,1,1.555,6.22Z" transform="translate(296 260)"/></g><path class="h" d="M0,0H345" transform="translate(15 351)"/></g></svg>