<svg xmlns="http://www.w3.org/2000/svg" width="26.939" height="19.456" viewBox="0 0 26.939 19.456"><defs><style>.a{fill:#8b8b8b;}</style></defs><path class="a" d="M25.817,124.913H1.122a1.122,1.122,0,0,1,0-2.245H25.817a1.122,1.122,0,0,1,0,2.245Zm0,0" transform="translate(0 -114.062)"/><path class="a" d="M25.817,2.245H1.122A1.122,1.122,0,0,1,1.122,0H25.817a1.122,1.122,0,1,1,0,2.245Zm0,0"/><path class="a" d="M25.817,247.577H1.122a1.122,1.122,0,0,1,0-2.245H25.817a1.122,1.122,0,0,1,0,2.245Zm0,0" transform="translate(0 -228.121)"/></svg>