<svg xmlns="http://www.w3.org/2000/svg" width="72.085" height="72" viewBox="0 0 72.085 72"><defs><style>.a{fill:rgba(21,34,79,0.24);}</style></defs><g transform="translate(0 -0.301)"><path class="a" d="M69.332,201.668h-5.2V175.148a1.964,1.964,0,0,0-1.962-1.962H46.11v-7.647a1.964,1.964,0,0,0-1.962-1.962H27.937a1.964,1.964,0,0,0-1.962,1.962v7.48a1.055,1.055,0,1,0,2.111,0v-7.331H44v35.981H28.086V177.517a1.055,1.055,0,0,0-2.111,0v3.775H9.913a1.964,1.964,0,0,0-1.962,1.962v18.415h-5.2A2.756,2.756,0,0,0,0,204.421v7.122A1.055,1.055,0,0,0,1.055,212.6H71.029a1.055,1.055,0,0,0,1.055-1.055v-7.122A2.756,2.756,0,0,0,69.332,201.668ZM10.062,183.4H25.975v18.266H10.062Zm59.912,27.086H2.111v-6.067a.642.642,0,0,1,.642-.642H52.378a1.055,1.055,0,0,0,0-2.111H46.11V175.3H62.023v26.372H56.876a1.055,1.055,0,0,0,0,2.111H69.332a.642.642,0,0,1,.642.642v6.067Z" transform="translate(0 -140.298)"/><path class="a" d="M186.388,13.168l-.837,4.878a1.883,1.883,0,0,0,2.732,1.985l4.381-2.3,4.381,2.3a1.883,1.883,0,0,0,2.732-1.985l-.837-4.878,3.545-3.455A1.883,1.883,0,0,0,201.442,6.5l-4.9-.712-2.191-4.438a1.883,1.883,0,0,0-3.377,0l-2.19,4.438-4.9.712a1.883,1.883,0,0,0-1.044,3.212Zm2.82-5.307a1.883,1.883,0,0,0,1.418-1.03L192.665,2.7,194.7,6.831a1.883,1.883,0,0,0,1.418,1.03l4.56.663-3.3,3.216a1.883,1.883,0,0,0-.542,1.667l.779,4.541L193.541,15.8a1.882,1.882,0,0,0-1.753,0l-4.078,2.144.779-4.541a1.883,1.883,0,0,0-.542-1.667l-3.3-3.216Z" transform="translate(-156.622)"/><path class="a" d="M364.685,64.73a1.055,1.055,0,0,0,1.055,1.055h1.512a1.055,1.055,0,1,0,0-2.111H365.74A1.055,1.055,0,0,0,364.685,64.73Z" transform="translate(-313.363 -54.455)"/><path class="a" d="M352.81,9.576a1.052,1.052,0,0,0,.436-.095l1.376-.625a1.055,1.055,0,0,0-.873-1.922l-1.376.625a1.056,1.056,0,0,0,.437,2.017Z" transform="translate(-302.251 -5.619)"/><path class="a" d="M352.373,118.084l1.376.625a1.055,1.055,0,0,0,.873-1.922l-1.376-.625a1.055,1.055,0,0,0-.873,1.922Z" transform="translate(-302.251 -99.474)"/><path class="a" d="M123.848,65.786h1.512a1.055,1.055,0,1,0,0-2.111h-1.512a1.055,1.055,0,1,0,0,2.111Z" transform="translate(-105.512 -54.455)"/><path class="a" d="M137.3,8.856l1.376.625a1.055,1.055,0,0,0,.873-1.922l-1.376-.625a1.055,1.055,0,0,0-.873,1.922Z" transform="translate(-117.446 -5.618)"/><path class="a" d="M138.677,116.162l-1.376.625a1.055,1.055,0,1,0,.873,1.922l1.376-.625a1.055,1.055,0,0,0-.873-1.922Z" transform="translate(-117.446 -99.475)"/></g></svg>