<svg xmlns="http://www.w3.org/2000/svg" width="72" height="72.252" viewBox="0 0 72 72.252"><defs><style>.a{fill:rgba(21,34,79,0.22);}</style></defs><g transform="translate(-0.894)"><path class="a" d="M246.457,9.181a1.421,1.421,0,0,0,1.421-1.421V1.421a1.421,1.421,0,1,0-2.842,0V7.76A1.421,1.421,0,0,0,246.457,9.181Z" transform="translate(-209.689)"/><path class="a" d="M71.507,119.385,69,116.881a4.759,4.759,0,0,0-5.631-.8l-4.731-4.725.23-.23a4.933,4.933,0,0,0,0-6.965,4.879,4.879,0,0,0-2.474-1.338,4.963,4.963,0,0,0,.2-1.383,4.921,4.921,0,0,0-3.915-4.82,4.963,4.963,0,0,0,.2-1.383,4.917,4.917,0,0,0-3.914-4.818A4.918,4.918,0,0,0,43.7,84.138l-9.375-1.775c-1.43-.271-3.215-.451-4.342.577a2.567,2.567,0,0,0-.215.223,4.942,4.942,0,0,0-5.185,1.14,4.889,4.889,0,0,0-1.44,3.484,4.969,4.969,0,0,0,.2,1.383,4.922,4.922,0,0,0-3.914,4.815,4.955,4.955,0,0,0,.2,1.387,4.928,4.928,0,0,0-3.055,7.6,4.925,4.925,0,0,0-1.892,8.147l.23.229-4.732,4.723a4.752,4.752,0,0,0-5.376.932L2.28,119.513a4.748,4.748,0,0,0,0,6.7l3.135,3.131a1.421,1.421,0,0,0,2.009-2.011l-3.135-3.131a1.906,1.906,0,0,1,0-2.682L6.8,119.02a1.9,1.9,0,0,1,2.318-.284,1.433,1.433,0,0,0,.179.219,1.414,1.414,0,0,0,.408.284l14.407,14.386a1.4,1.4,0,0,0,.685.692,1.9,1.9,0,0,1-.079,2.6l-2.51,2.507a1.909,1.909,0,0,1-2.687,0l-3.135-3.135a1.421,1.421,0,0,0-2.01,2.01l3.137,3.138a4.758,4.758,0,0,0,6.7,0l2.511-2.508a4.752,4.752,0,0,0,.665-5.869l5.325-5.319.017-.017c.61-.63,2.308-.512,3.95-.4a20.44,20.44,0,0,0,3.738.025l5.832,5.825a4.75,4.75,0,0,0,.806,5.626l2.511,2.508a4.752,4.752,0,0,0,6.7,0L71.508,126.09a4.747,4.747,0,0,0,0-6.7ZM33.792,85.157l6.165,1.167-3.69,3.689a8.959,8.959,0,0,1-2.211-1.607,6.538,6.538,0,0,1-2.092-3.231h0a1.241,1.241,0,0,1-.006-.14,4.816,4.816,0,0,1,1.835.124Zm-7.205,1.159a2.1,2.1,0,0,1,2.652-.251,10.165,10.165,0,0,0,2.852,4.395A10.525,10.525,0,0,0,36.185,93,2.086,2.086,0,0,1,33,95.66h0l-6.409-6.4a2.093,2.093,0,0,1,0-2.946Zm-3.714,6.2a2.1,2.1,0,0,1,2.953,0l5.161,5.151a2.089,2.089,0,0,1-2.956,2.951h0l-3.915-3.914-.019-.018-1.225-1.224a2.086,2.086,0,0,1,0-2.947Zm-3.721,6.2a2.1,2.1,0,0,1,2.944-.01l3.927,3.925a2.086,2.086,0,0,1-2.956,2.944l-1.424-1.422h0l-2.49-2.487a2.091,2.091,0,0,1,0-2.95Zm-2.475,7.449a2.1,2.1,0,0,1,2.957,0l1.426,1.424a2.086,2.086,0,0,1-2.957,2.943l-.179-.178-.006-.007-.008-.007-1.232-1.227a2.087,2.087,0,0,1,0-2.948ZM45.64,122.319a1.421,1.421,0,0,0-2.01,0l-1.264,1.263c-1.2,1.2-3.379,1.05-5.484.9-2.286-.159-4.65-.323-6.18,1.248l-5.235,5.228L12.376,117.889l4.633-4.624a4.929,4.929,0,0,0,7.5-4.2c0-.012,0-.024,0-.037h.037a4.916,4.916,0,0,0,4.927-4.921c0-.012,0-.024,0-.037h.037a4.911,4.911,0,0,0,4.927-4.959h.038a4.93,4.93,0,0,0,4.207-7.493l4.06-4.059a2.085,2.085,0,0,1,1.067-.568c.042,0,.084-.011.125-.019A2.083,2.083,0,0,1,45.7,90.506l-1.237,1.232-.013.012L43.03,93.171a1.421,1.421,0,0,0,2.009,2.011l1.242-1.24h0l.188-.187a2.093,2.093,0,0,1,2.949.007,2.086,2.086,0,0,1,0,2.946l-1.244,1.246h0l-1.424,1.418a1.421,1.421,0,1,0,2.006,2.014l1.431-1.425a2.086,2.086,0,0,1,2.952,2.948l-2.479,2.48a1.421,1.421,0,1,0,2.01,2.009l1.215-1.216.021-.019a2.086,2.086,0,0,1,2.953,2.947l-1.235,1.234h0l-1.961,1.959a1.421,1.421,0,0,0,2.009,2.011l.959-.958,4.6,4.592L48.131,131.026l-4.69-4.684a5.587,5.587,0,0,0,.933-.751l1.264-1.262a1.421,1.421,0,0,0,0-2.01Zm23.86,1.76L54.267,139.293a1.91,1.91,0,0,1-2.686,0l-2.511-2.508a1.9,1.9,0,0,1,0-2.678L64.3,118.892a1.91,1.91,0,0,1,2.687,0l2.511,2.5a1.905,1.905,0,0,1,0,2.682Z" transform="translate(0 -70.56)"/><path class="a" d="M87.319,10.341a1.421,1.421,0,0,0,2.008-2.012L84.148,3.16a1.421,1.421,0,1,0-2.008,2.012Z" transform="translate(-69.423 -2.358)"/><path class="a" d="M373.072,10.756a1.417,1.417,0,0,0,1-.416l5.175-5.169a1.421,1.421,0,0,0-2.009-2.011L372.068,8.33a1.421,1.421,0,0,0,1,2.427Z" transform="translate(-318.437 -2.358)"/><path class="a" d="M60.338,430.618a1.421,1.421,0,0,0,.017,2.01l0,0a1.421,1.421,0,1,0-.021-2.014Z" transform="translate(-50.705 -369.485)"/><path class="a" d="M333.934,334.961a1.421,1.421,0,1,0-.639-2.691l-.008,0a1.42,1.42,0,0,0,.646,2.687Z" transform="translate(-284.819 -285.25)"/></g></svg>